<svg width="204" height="204" viewBox="0 0 204 204" fill="none" xmlns="http://www.w3.org/2000/svg">
<path d="M127.721 58.3357C129.967 58.3357 131.791 56.5168 131.791 54.2658C131.791 52.0152 129.967 50.1958 127.721 50.1958H71.8393C69.5928 50.1958 67.7693 52.0147 67.7693 54.2658C67.7693 56.5163 69.5928 58.3357 71.8393 58.3357H127.721Z" fill="white"/>
<path d="M183.777 50.1963H156.054C153.808 50.1963 151.984 52.0152 151.984 54.2663C151.984 56.5168 153.808 58.3362 156.054 58.3362H179.707V195.861H24.2921V58.3357H46.59C48.8365 58.3357 50.6599 56.5168 50.6599 54.2658C50.6599 52.0152 48.8365 50.1958 46.59 50.1958H20.2226C17.9761 50.1958 16.1526 52.0147 16.1526 54.2658V199.93C16.1526 202.181 17.9761 204 20.2226 204H183.777C186.024 204 187.847 202.181 187.847 199.93V54.2658C187.847 52.0152 186.028 50.1963 183.777 50.1963Z" fill="white"/>
<path d="M141.485 67.4885C143.731 67.4885 145.555 65.6695 145.555 63.4185V33.7422C145.554 15.1393 125.47 0 100.685 0C75.9984 0 55.9185 15.1393 55.9185 33.7422V63.419C55.9185 65.6695 57.7419 67.489 59.9884 67.489C62.2349 67.489 64.0584 65.67 64.0584 63.419V33.7422C64.0584 19.6243 80.4919 8.13941 100.788 8.13941C120.982 8.13941 137.415 19.6243 137.415 33.7422V63.419C137.415 65.6695 139.234 67.4885 141.485 67.4885Z" fill="white"/>
<path d="M49.5124 73.882C49.5124 79.6528 54.2132 84.3496 59.9879 84.3496C65.7627 84.3496 70.4635 79.6533 70.4635 73.882C70.4635 71.6315 68.64 69.8121 66.3935 69.8121C64.147 69.8121 62.3236 71.631 62.3236 73.882C62.3236 75.1642 61.2777 76.2102 59.9874 76.2102C58.7012 76.2102 57.6513 75.1642 57.6513 73.882C57.6513 71.6315 55.8278 69.8121 53.5813 69.8121C51.3348 69.8121 49.5124 71.6315 49.5124 73.882Z" fill="white"/>
<path d="M141.485 84.3496C147.259 84.3496 151.96 79.6533 151.96 73.882C151.96 71.6315 150.137 69.8121 147.89 69.8121C145.644 69.8121 143.82 71.631 143.82 73.882C143.82 75.1642 142.774 76.2102 141.484 76.2102C140.194 76.2102 139.148 75.1642 139.148 73.882C139.148 71.6315 137.325 69.8121 135.078 69.8121C132.832 69.8121 131.008 71.631 131.008 73.882C131.009 79.6528 135.709 84.3496 141.485 84.3496Z" fill="white"/>
</svg>
